<svg width="27" height="17" viewBox="0 0 27 17" fill="none" xmlns="http://www.w3.org/2000/svg">
<g opacity="0.6" clip-path="url(#clip0)">
<path d="M11.1095 7.68384C11.6693 7.39852 12.0907 7.08665 12.3805 6.74161C12.8941 6.12451 13.151 5.30835 13.151 4.29977C13.151 3.31772 12.8941 2.47502 12.3871 1.77166C11.5376 0.617096 10.0954 0.0331772 8.06049 0H0V16.582H7.52049C8.37 16.582 9.15366 16.509 9.87805 16.3564C10.6024 16.2037 11.2281 15.9317 11.7615 15.5203C12.2356 15.1686 12.6307 14.7307 12.9402 14.2131C13.4341 13.4368 13.6844 12.5543 13.6844 11.5656C13.6844 10.6101 13.4671 9.80055 13.0324 9.137C12.5978 8.48009 11.959 7.99571 11.1095 7.68384ZM3.32561 2.87978H6.96073C7.75756 2.87978 8.4161 2.96604 8.93634 3.13856C9.53561 3.39071 9.83195 3.895 9.83195 4.67135C9.83195 5.36807 9.60805 5.85246 9.15366 6.12451C8.69927 6.39656 8.11317 6.53591 7.38878 6.53591H3.32561V2.87978ZM9.06805 13.4169C8.66634 13.6093 8.1 13.7088 7.37561 13.7088H3.32561V9.28298H7.43488C8.1461 9.28962 8.70585 9.38251 9.10098 9.56167C9.8122 9.88681 10.1612 10.4774 10.1612 11.34C10.1612 12.3618 9.79903 13.0519 9.06805 13.4169Z" fill="#515151"/>
<path d="M24.4054 0.776348H17.2537V2.83997H24.4054V0.776348Z" fill="#515151"/>
<path d="M25.9003 6.3833C25.3405 5.55387 24.6293 4.95004 23.7732 4.57182C22.9105 4.18697 21.949 3.99454 20.869 3.99454C19.0581 3.99454 17.5895 4.56519 16.4568 5.69321C15.3242 6.82787 14.7578 8.46019 14.7578 10.5835C14.7578 12.8462 15.3834 14.4852 16.6412 15.4938C17.8924 16.5023 19.3412 17 20.9876 17C22.9763 17 24.5239 16.4028 25.6303 15.2151C26.3415 14.4653 26.7366 13.7221 26.8288 12.9988H23.5361C23.3451 13.3571 23.1212 13.6425 22.871 13.8415C22.41 14.2131 21.8107 14.4055 21.0798 14.4055C20.3817 14.4055 19.7956 14.2529 19.3017 13.9411C18.4917 13.45 18.0637 12.5808 18.011 11.3532H27C27.0132 10.2916 26.9803 9.48205 26.8946 8.91804C26.7366 7.96253 26.4139 7.11319 25.9003 6.3833ZM18.0834 9.23654C18.202 8.44028 18.4851 7.80328 18.9461 7.3388C19.4005 6.87432 20.0459 6.63544 20.869 6.63544C21.6329 6.63544 22.2651 6.85441 22.7854 7.29235C23.299 7.73693 23.5822 8.38056 23.6415 9.2299H18.0834V9.23654Z" fill="#515151"/>
</g>
<defs>
<clipPath id="clip0">
<rect width="27" height="17" fill="white"/>
</clipPath>
</defs>
</svg>
