<svg width="126" height="17" viewBox="0 0 126 17" fill="none" xmlns="http://www.w3.org/2000/svg">
<path d="M8.48467 1.336C8.48467 1.456 8.42467 1.516 8.30467 1.516H1.68067C1.63267 1.516 1.60867 1.54 1.60867 1.588V6.034C1.60867 6.082 1.63267 6.106 1.68067 6.106H6.32467C6.44467 6.106 6.50467 6.166 6.50467 6.286V7.042C6.50467 7.162 6.44467 7.222 6.32467 7.222H1.68067C1.63267 7.222 1.60867 7.246 1.60867 7.294V11.812C1.60867 11.86 1.63267 11.884 1.68067 11.884H8.30467C8.42467 11.884 8.48467 11.944 8.48467 12.064V12.82C8.48467 12.94 8.42467 13 8.30467 13H0.510672C0.390672 13 0.330672 12.94 0.330672 12.82V0.579999C0.330672 0.459999 0.390672 0.399999 0.510672 0.399999H8.30467C8.42467 0.399999 8.48467 0.459999 8.48467 0.579999V1.336ZM10.2031 13C10.1311 13 10.0771 12.976 10.0411 12.928C10.0171 12.88 10.0291 12.832 10.0771 12.784L13.0831 8.5C13.1071 8.464 13.1071 8.428 13.0831 8.392L10.0771 4.108C10.0531 4.084 10.0411 4.054 10.0411 4.018C10.0411 3.934 10.0951 3.892 10.2031 3.892H11.1751C11.2711 3.892 11.3431 3.928 11.3911 4L13.7491 7.402C13.7611 7.414 13.7791 7.42 13.8031 7.42C13.8271 7.42 13.8451 7.414 13.8571 7.402L16.1971 4C16.2451 3.928 16.3171 3.892 16.4131 3.892H17.4751C17.5471 3.892 17.5951 3.916 17.6191 3.964C17.6431 4 17.6311 4.048 17.5831 4.108L14.5771 8.392C14.5651 8.428 14.5651 8.464 14.5771 8.5L17.5831 12.784C17.6071 12.808 17.6191 12.844 17.6191 12.892C17.6191 12.916 17.6071 12.94 17.5831 12.964C17.5591 12.988 17.5231 13 17.4751 13H16.4851C16.3891 13 16.3171 12.964 16.2691 12.892L13.9291 9.49C13.9171 9.466 13.8991 9.454 13.8751 9.454C13.8511 9.454 13.8331 9.466 13.8211 9.49L11.4451 12.892C11.3971 12.964 11.3251 13 11.2291 13H10.2031ZM26.6292 6.16C26.8092 6.736 26.8992 7.498 26.8992 8.446C26.8992 9.406 26.8212 10.15 26.6652 10.678C26.4492 11.446 26.0532 12.052 25.4772 12.496C24.9132 12.928 24.1992 13.144 23.3352 13.144C22.8672 13.144 22.4352 13.054 22.0392 12.874C21.6432 12.682 21.3132 12.412 21.0492 12.064C21.0252 12.04 21.0012 12.034 20.9772 12.046C20.9652 12.046 20.9592 12.058 20.9592 12.082V16.312C20.9592 16.432 20.8992 16.492 20.7792 16.492H19.8612C19.7412 16.492 19.6812 16.432 19.6812 16.312V4.072C19.6812 3.952 19.7412 3.892 19.8612 3.892H20.7792C20.8992 3.892 20.9592 3.952 20.9592 4.072V4.828C20.9592 4.852 20.9652 4.87 20.9772 4.882C21.0012 4.882 21.0252 4.87 21.0492 4.846C21.3132 4.498 21.6372 4.228 22.0212 4.036C22.4172 3.844 22.8552 3.748 23.3352 3.748C24.1752 3.748 24.8772 3.964 25.4412 4.396C26.0172 4.828 26.4132 5.416 26.6292 6.16ZM25.2072 10.714C25.3392 10.45 25.4352 10.156 25.4952 9.832C25.5672 9.496 25.6032 9.034 25.6032 8.446C25.6032 7.882 25.5792 7.444 25.5312 7.132C25.4832 6.808 25.3992 6.52 25.2792 6.268C25.1352 5.836 24.8772 5.494 24.5052 5.242C24.1452 4.99 23.7132 4.864 23.2092 4.864C22.7292 4.864 22.3272 4.99 22.0032 5.242C21.6792 5.494 21.4392 5.83 21.2832 6.25C21.1752 6.49 21.0972 6.772 21.0492 7.096C21.0012 7.42 20.9772 7.87 20.9772 8.446C20.9772 9.022 21.0012 9.478 21.0492 9.814C21.0972 10.138 21.1812 10.426 21.3012 10.678C21.4452 11.086 21.6792 11.416 22.0032 11.668C22.3392 11.908 22.7352 12.028 23.1912 12.028C23.6712 12.028 24.0852 11.908 24.4332 11.668C24.7932 11.428 25.0512 11.11 25.2072 10.714ZM29.6669 13C29.5469 13 29.4869 12.94 29.4869 12.82V0.579999C29.4869 0.459999 29.5469 0.399999 29.6669 0.399999H30.5849C30.7049 0.399999 30.7649 0.459999 30.7649 0.579999V12.82C30.7649 12.94 30.7049 13 30.5849 13H29.6669ZM37.1093 13.144C36.2453 13.144 35.5013 12.922 34.8773 12.478C34.2533 12.034 33.8213 11.422 33.5813 10.642C33.4133 10.09 33.3293 9.352 33.3293 8.428C33.3293 7.504 33.4133 6.772 33.5813 6.232C33.8093 5.464 34.2353 4.858 34.8593 4.414C35.4833 3.97 36.2393 3.748 37.1273 3.748C37.9793 3.748 38.7113 3.97 39.3233 4.414C39.9473 4.858 40.3733 5.458 40.6013 6.214C40.7693 6.73 40.8533 7.468 40.8533 8.428C40.8533 9.4 40.7693 10.138 40.6013 10.642C40.3733 11.422 39.9473 12.034 39.3233 12.478C38.7113 12.922 37.9733 13.144 37.1093 13.144ZM37.1093 12.028C37.6853 12.028 38.1773 11.872 38.5853 11.56C38.9933 11.236 39.2693 10.804 39.4133 10.264C39.5213 9.832 39.5753 9.226 39.5753 8.446C39.5753 7.654 39.5273 7.048 39.4313 6.628C39.2873 6.088 39.0053 5.662 38.5853 5.35C38.1773 5.026 37.6793 4.864 37.0913 4.864C36.5033 4.864 36.0053 5.026 35.5973 5.35C35.1893 5.662 34.9133 6.088 34.7693 6.628C34.6733 7.048 34.6253 7.654 34.6253 8.446C34.6253 9.238 34.6733 9.844 34.7693 10.264C34.9013 10.804 35.1713 11.236 35.5793 11.56C35.9993 11.872 36.5093 12.028 37.1093 12.028ZM47.1159 3.802C47.5119 3.802 47.8539 3.88 48.1419 4.036C48.2379 4.084 48.2739 4.162 48.2499 4.27L48.0519 5.152C48.0159 5.272 47.9379 5.308 47.8179 5.26C47.6139 5.176 47.3799 5.134 47.1159 5.134L46.8819 5.152C46.2579 5.176 45.7419 5.41 45.3339 5.854C44.9259 6.286 44.7219 6.838 44.7219 7.51V12.82C44.7219 12.94 44.6619 13 44.5419 13H43.6239C43.5039 13 43.4439 12.94 43.4439 12.82V4.072C43.4439 3.952 43.5039 3.892 43.6239 3.892H44.5419C44.6619 3.892 44.7219 3.952 44.7219 4.072V5.17C44.7219 5.206 44.7279 5.23 44.7399 5.242C44.7639 5.242 44.7819 5.23 44.7939 5.206C45.0459 4.762 45.3639 4.42 45.7479 4.18C46.1439 3.928 46.5999 3.802 47.1159 3.802ZM56.8967 6.916C56.9447 7.252 56.9687 7.672 56.9687 8.176V8.752C56.9687 8.872 56.9087 8.932 56.7887 8.932H50.9747C50.9267 8.932 50.9027 8.956 50.9027 9.004C50.9267 9.664 50.9627 10.09 51.0107 10.282C51.1427 10.822 51.4247 11.248 51.8567 11.56C52.2887 11.872 52.8407 12.028 53.5127 12.028C54.0167 12.028 54.4607 11.914 54.8447 11.686C55.2287 11.458 55.5287 11.134 55.7447 10.714C55.8167 10.606 55.9007 10.582 55.9967 10.642L56.6987 11.056C56.7947 11.116 56.8187 11.2 56.7707 11.308C56.4707 11.884 56.0207 12.34 55.4207 12.676C54.8207 13 54.1307 13.162 53.3507 13.162C52.4987 13.15 51.7847 12.946 51.2087 12.55C50.6327 12.154 50.2187 11.602 49.9667 10.894C49.7507 10.318 49.6427 9.49 49.6427 8.41C49.6427 7.906 49.6487 7.498 49.6607 7.186C49.6847 6.862 49.7327 6.574 49.8047 6.322C50.0087 5.542 50.4167 4.918 51.0287 4.45C51.6527 3.982 52.4027 3.748 53.2787 3.748C54.3707 3.748 55.2107 4.024 55.7987 4.576C56.3867 5.128 56.7527 5.908 56.8967 6.916ZM53.2787 4.864C52.6907 4.864 52.1987 5.02 51.8027 5.332C51.4187 5.632 51.1667 6.04 51.0467 6.556C50.9747 6.808 50.9267 7.216 50.9027 7.78C50.9027 7.828 50.9267 7.852 50.9747 7.852H55.6367C55.6847 7.852 55.7087 7.828 55.7087 7.78C55.6847 7.24 55.6487 6.856 55.6007 6.628C55.4687 6.088 55.1987 5.662 54.7907 5.35C54.3947 5.026 53.8907 4.864 53.2787 4.864ZM72.3298 3.766C73.2298 3.766 73.9378 4.036 74.4538 4.576C74.9818 5.116 75.2458 5.854 75.2458 6.79V12.82C75.2458 12.94 75.1858 13 75.0658 13H74.1658C74.0458 13 73.9858 12.94 73.9858 12.82V7.042C73.9858 6.382 73.7938 5.86 73.4098 5.476C73.0378 5.08 72.5458 4.882 71.9338 4.882C71.2978 4.882 70.7818 5.074 70.3858 5.458C70.0018 5.842 69.8098 6.358 69.8098 7.006V12.82C69.8098 12.94 69.7498 13 69.6298 13H68.7118C68.5918 13 68.5318 12.94 68.5318 12.82V7.042C68.5318 6.382 68.3458 5.86 67.9738 5.476C67.6018 5.08 67.1038 4.882 66.4798 4.882C65.8438 4.882 65.3338 5.074 64.9498 5.458C64.5778 5.842 64.3918 6.358 64.3918 7.006V12.82C64.3918 12.94 64.3318 13 64.2118 13H63.2938C63.1738 13 63.1138 12.94 63.1138 12.82V4.072C63.1138 3.952 63.1738 3.892 63.2938 3.892H64.2118C64.3318 3.892 64.3918 3.952 64.3918 4.072V4.792C64.3918 4.816 64.3978 4.834 64.4098 4.846C64.4338 4.846 64.4578 4.834 64.4818 4.81C64.7458 4.462 65.0818 4.204 65.4898 4.036C65.9098 3.856 66.3718 3.766 66.8758 3.766C67.4998 3.766 68.0338 3.892 68.4778 4.144C68.9218 4.396 69.2578 4.762 69.4858 5.242C69.5098 5.302 69.5398 5.302 69.5758 5.242C69.8398 4.75 70.2118 4.384 70.6918 4.144C71.1718 3.892 71.7178 3.766 72.3298 3.766ZM77.4303 16.6C77.3463 16.6 77.3043 16.54 77.3043 16.42V15.7C77.3043 15.58 77.3643 15.52 77.4843 15.52H77.5563C78.0243 15.508 78.3843 15.436 78.6363 15.304C78.9003 15.184 79.1223 14.95 79.3023 14.602C79.4943 14.266 79.6983 13.75 79.9143 13.054C79.9383 13.006 79.9383 12.97 79.9143 12.946L76.8723 4.09L76.8543 4.018C76.8543 3.934 76.9083 3.892 77.0163 3.892H77.9703C78.0783 3.892 78.1503 3.94 78.1863 4.036L80.5263 11.308C80.5383 11.332 80.5563 11.344 80.5803 11.344C80.6043 11.344 80.6223 11.332 80.6343 11.308L82.9383 4.036C82.9743 3.94 83.0463 3.892 83.1543 3.892H84.0903C84.2223 3.892 84.2703 3.958 84.2343 4.09L80.9043 13.792C80.6163 14.596 80.3463 15.19 80.0943 15.574C79.8423 15.958 79.5243 16.222 79.1403 16.366C78.7683 16.522 78.2403 16.6 77.5563 16.6H77.4303ZM91.6347 13C91.5387 13 91.4727 12.952 91.4367 12.856L88.8807 4.09L88.8627 4.036C88.8627 3.94 88.9227 3.892 89.0427 3.892H89.9787C90.0867 3.892 90.1527 3.946 90.1767 4.054L92.0847 11.146C92.0967 11.17 92.1087 11.182 92.1207 11.182C92.1447 11.182 92.1627 11.17 92.1747 11.146L94.1187 4.054C94.1427 3.946 94.2087 3.892 94.3167 3.892H95.1807C95.2887 3.892 95.3547 3.94 95.3787 4.036L97.3407 11.128C97.3527 11.152 97.3707 11.164 97.3947 11.164C97.4187 11.164 97.4367 11.152 97.4487 11.128L99.4107 4.054C99.4347 3.946 99.5007 3.892 99.6087 3.892L100.545 3.91C100.605 3.91 100.647 3.928 100.671 3.964C100.707 4 100.719 4.048 100.707 4.108L98.1147 12.856C98.0787 12.952 98.0127 13 97.9167 13H96.9627C96.8667 13 96.8007 12.952 96.7647 12.856L94.8027 6.124C94.7907 6.1 94.7727 6.088 94.7487 6.088C94.7367 6.088 94.7247 6.1 94.7127 6.124L92.8047 12.856C92.7687 12.952 92.7027 13 92.6067 13H91.6347ZM105.893 13.144C105.029 13.144 104.285 12.922 103.661 12.478C103.037 12.034 102.605 11.422 102.365 10.642C102.197 10.09 102.113 9.352 102.113 8.428C102.113 7.504 102.197 6.772 102.365 6.232C102.593 5.464 103.019 4.858 103.643 4.414C104.267 3.97 105.023 3.748 105.911 3.748C106.763 3.748 107.495 3.97 108.107 4.414C108.731 4.858 109.157 5.458 109.385 6.214C109.553 6.73 109.637 7.468 109.637 8.428C109.637 9.4 109.553 10.138 109.385 10.642C109.157 11.422 108.731 12.034 108.107 12.478C107.495 12.922 106.757 13.144 105.893 13.144ZM105.893 12.028C106.469 12.028 106.961 11.872 107.369 11.56C107.777 11.236 108.053 10.804 108.197 10.264C108.305 9.832 108.359 9.226 108.359 8.446C108.359 7.654 108.311 7.048 108.215 6.628C108.071 6.088 107.789 5.662 107.369 5.35C106.961 5.026 106.463 4.864 105.875 4.864C105.287 4.864 104.789 5.026 104.381 5.35C103.973 5.662 103.697 6.088 103.553 6.628C103.457 7.048 103.409 7.654 103.409 8.446C103.409 9.238 103.457 9.844 103.553 10.264C103.685 10.804 103.955 11.236 104.363 11.56C104.783 11.872 105.293 12.028 105.893 12.028ZM115.899 3.802C116.295 3.802 116.637 3.88 116.925 4.036C117.021 4.084 117.057 4.162 117.033 4.27L116.835 5.152C116.799 5.272 116.721 5.308 116.601 5.26C116.397 5.176 116.163 5.134 115.899 5.134L115.665 5.152C115.041 5.176 114.525 5.41 114.117 5.854C113.709 6.286 113.505 6.838 113.505 7.51V12.82C113.505 12.94 113.445 13 113.325 13H112.407C112.287 13 112.227 12.94 112.227 12.82V4.072C112.227 3.952 112.287 3.892 112.407 3.892H113.325C113.445 3.892 113.505 3.952 113.505 4.072V5.17C113.505 5.206 113.511 5.23 113.523 5.242C113.547 5.242 113.565 5.23 113.577 5.206C113.829 4.762 114.147 4.42 114.531 4.18C114.927 3.928 115.383 3.802 115.899 3.802ZM118.964 13C118.844 13 118.784 12.94 118.784 12.82V0.579999C118.784 0.459999 118.844 0.399999 118.964 0.399999H119.882C120.002 0.399999 120.062 0.459999 120.062 0.579999V7.942C120.062 7.966 120.068 7.984 120.08 7.996C120.104 8.008 120.128 8.002 120.152 7.978L123.968 3.982C124.028 3.922 124.1 3.892 124.184 3.892H125.264C125.336 3.892 125.384 3.916 125.408 3.964C125.432 4.012 125.42 4.06 125.372 4.108L123.068 6.664C123.044 6.688 123.038 6.718 123.05 6.754L125.804 12.784L125.822 12.856C125.822 12.952 125.768 13 125.66 13H124.688C124.592 13 124.526 12.952 124.49 12.856L122.168 7.6C122.144 7.552 122.114 7.546 122.078 7.582L120.098 9.67C120.074 9.694 120.062 9.724 120.062 9.76V12.82C120.062 12.94 120.002 13 119.882 13H118.964Z" fill="white"/>
</svg>
