<svg width="117" height="39" viewBox="0 0 117 39" fill="none" xmlns="http://www.w3.org/2000/svg">
<rect opacity="0.6" width="117" height="39" fill="#515151"/>
<path d="M22.7944 26C22.6944 26 22.6444 25.95 22.6444 25.85V15.65C22.6444 15.55 22.6944 15.5 22.7944 15.5H23.5594C23.6594 15.5 23.7094 15.55 23.7094 15.65V25.01C23.7094 25.05 23.7294 25.07 23.7694 25.07H29.0644C29.1644 25.07 29.2144 25.12 29.2144 25.22V25.85C29.2144 25.95 29.1644 26 29.0644 26H22.7944ZM36.7798 20.93C36.8198 21.21 36.8398 21.56 36.8398 21.98V22.46C36.8398 22.56 36.7898 22.61 36.6898 22.61H31.8448C31.8048 22.61 31.7848 22.63 31.7848 22.67C31.8048 23.22 31.8348 23.575 31.8748 23.735C31.9848 24.185 32.2198 24.54 32.5798 24.8C32.9398 25.06 33.3998 25.19 33.9598 25.19C34.3798 25.19 34.7498 25.095 35.0698 24.905C35.3898 24.715 35.6398 24.445 35.8198 24.095C35.8798 24.005 35.9498 23.985 36.0298 24.035L36.6148 24.38C36.6948 24.43 36.7148 24.5 36.6748 24.59C36.4248 25.07 36.0498 25.45 35.5498 25.73C35.0498 26 34.4748 26.135 33.8248 26.135C33.1148 26.125 32.5198 25.955 32.0398 25.625C31.5598 25.295 31.2148 24.835 31.0048 24.245C30.8248 23.765 30.7348 23.075 30.7348 22.175C30.7348 21.755 30.7398 21.415 30.7498 21.155C30.7698 20.885 30.8098 20.645 30.8698 20.435C31.0398 19.785 31.3798 19.265 31.8898 18.875C32.4098 18.485 33.0348 18.29 33.7648 18.29C34.6748 18.29 35.3748 18.52 35.8648 18.98C36.3548 19.44 36.6598 20.09 36.7798 20.93ZM33.7648 19.22C33.2748 19.22 32.8648 19.35 32.5348 19.61C32.2148 19.86 32.0048 20.2 31.9048 20.63C31.8448 20.84 31.8048 21.18 31.7848 21.65C31.7848 21.69 31.8048 21.71 31.8448 21.71H35.7298C35.7698 21.71 35.7898 21.69 35.7898 21.65C35.7698 21.2 35.7398 20.88 35.6998 20.69C35.5898 20.24 35.3648 19.885 35.0248 19.625C34.6948 19.355 34.2748 19.22 33.7648 19.22ZM41.5096 18.29C42.4096 18.29 43.1046 18.52 43.5946 18.98C44.0846 19.44 44.3296 20.05 44.3296 20.81V25.85C44.3296 25.95 44.2796 26 44.1796 26H43.4146C43.3146 26 43.2646 25.95 43.2646 25.85V25.235C43.2646 25.215 43.2546 25.2 43.2346 25.19C43.2246 25.18 43.2096 25.185 43.1896 25.205C42.9396 25.505 42.6146 25.735 42.2146 25.895C41.8146 26.045 41.3696 26.12 40.8796 26.12C40.1696 26.12 39.5746 25.94 39.0946 25.58C38.6146 25.22 38.3746 24.67 38.3746 23.93C38.3746 23.18 38.6446 22.59 39.1846 22.16C39.7346 21.72 40.4946 21.5 41.4646 21.5H43.2046C43.2446 21.5 43.2646 21.48 43.2646 21.44V20.87C43.2646 20.36 43.1196 19.96 42.8296 19.67C42.5496 19.37 42.1096 19.22 41.5096 19.22C41.0296 19.22 40.6396 19.315 40.3396 19.505C40.0396 19.685 39.8546 19.94 39.7846 20.27C39.7546 20.37 39.6946 20.415 39.6046 20.405L38.7946 20.3C38.6846 20.28 38.6396 20.24 38.6596 20.18C38.7396 19.62 39.0396 19.165 39.5596 18.815C40.0796 18.465 40.7296 18.29 41.5096 18.29ZM41.0896 25.205C41.6796 25.205 42.1896 25.06 42.6196 24.77C43.0496 24.47 43.2646 24.07 43.2646 23.57V22.4C43.2646 22.36 43.2446 22.34 43.2046 22.34H41.6296C40.9696 22.34 40.4396 22.475 40.0396 22.745C39.6396 23.015 39.4396 23.39 39.4396 23.87C39.4396 24.31 39.5896 24.645 39.8896 24.875C40.1996 25.095 40.5996 25.205 41.0896 25.205ZM49.6057 18.335C49.9357 18.335 50.2207 18.4 50.4607 18.53C50.5407 18.57 50.5707 18.635 50.5507 18.725L50.3857 19.46C50.3557 19.56 50.2907 19.59 50.1907 19.55C50.0207 19.48 49.8257 19.445 49.6057 19.445L49.4107 19.46C48.8907 19.48 48.4607 19.675 48.1207 20.045C47.7807 20.405 47.6107 20.865 47.6107 21.425V25.85C47.6107 25.95 47.5607 26 47.4607 26H46.6957C46.5957 26 46.5457 25.95 46.5457 25.85V18.56C46.5457 18.46 46.5957 18.41 46.6957 18.41H47.4607C47.5607 18.41 47.6107 18.46 47.6107 18.56V19.475C47.6107 19.505 47.6157 19.525 47.6257 19.535C47.6457 19.535 47.6607 19.525 47.6707 19.505C47.8807 19.135 48.1457 18.85 48.4657 18.65C48.7957 18.44 49.1757 18.335 49.6057 18.335ZM55.1596 18.305C55.9596 18.305 56.5946 18.54 57.0646 19.01C57.5446 19.48 57.7846 20.11 57.7846 20.9V25.85C57.7846 25.95 57.7346 26 57.6346 26H56.8696C56.7696 26 56.7196 25.95 56.7196 25.85V21.11C56.7196 20.56 56.5496 20.11 56.2096 19.76C55.8796 19.41 55.4496 19.235 54.9196 19.235C54.3696 19.235 53.9246 19.405 53.5846 19.745C53.2446 20.085 53.0746 20.53 53.0746 21.08V25.85C53.0746 25.95 53.0246 26 52.9246 26H52.1596C52.0596 26 52.0096 25.95 52.0096 25.85V18.56C52.0096 18.46 52.0596 18.41 52.1596 18.41H52.9246C53.0246 18.41 53.0746 18.46 53.0746 18.56V19.205C53.0746 19.225 53.0796 19.24 53.0896 19.25C53.1096 19.26 53.1246 19.255 53.1346 19.235C53.5746 18.615 54.2496 18.305 55.1596 18.305ZM70.7784 18.305C71.5284 18.305 72.1184 18.53 72.5484 18.98C72.9884 19.43 73.2084 20.045 73.2084 20.825V25.85C73.2084 25.95 73.1584 26 73.0584 26H72.3084C72.2084 26 72.1584 25.95 72.1584 25.85V21.035C72.1584 20.485 71.9984 20.05 71.6784 19.73C71.3684 19.4 70.9584 19.235 70.4484 19.235C69.9184 19.235 69.4884 19.395 69.1584 19.715C68.8384 20.035 68.6784 20.465 68.6784 21.005V25.85C68.6784 25.95 68.6284 26 68.5284 26H67.7634C67.6634 26 67.6134 25.95 67.6134 25.85V21.035C67.6134 20.485 67.4584 20.05 67.1484 19.73C66.8384 19.4 66.4234 19.235 65.9034 19.235C65.3734 19.235 64.9484 19.395 64.6284 19.715C64.3184 20.035 64.1634 20.465 64.1634 21.005V25.85C64.1634 25.95 64.1134 26 64.0134 26H63.2484C63.1484 26 63.0984 25.95 63.0984 25.85V18.56C63.0984 18.46 63.1484 18.41 63.2484 18.41H64.0134C64.1134 18.41 64.1634 18.46 64.1634 18.56V19.16C64.1634 19.18 64.1684 19.195 64.1784 19.205C64.1984 19.205 64.2184 19.195 64.2384 19.175C64.4584 18.885 64.7384 18.67 65.0784 18.53C65.4284 18.38 65.8134 18.305 66.2334 18.305C66.7534 18.305 67.1984 18.41 67.5684 18.62C67.9384 18.83 68.2184 19.135 68.4084 19.535C68.4284 19.585 68.4534 19.585 68.4834 19.535C68.7034 19.125 69.0134 18.82 69.4134 18.62C69.8134 18.41 70.2684 18.305 70.7784 18.305ZM78.2981 26.12C77.5781 26.12 76.9581 25.935 76.4381 25.565C75.9181 25.195 75.5581 24.685 75.3581 24.035C75.2181 23.575 75.1481 22.96 75.1481 22.19C75.1481 21.42 75.2181 20.81 75.3581 20.36C75.5481 19.72 75.9031 19.215 76.4231 18.845C76.9431 18.475 77.5731 18.29 78.3131 18.29C79.0231 18.29 79.6331 18.475 80.1431 18.845C80.6631 19.215 81.0181 19.715 81.2081 20.345C81.3481 20.775 81.4181 21.39 81.4181 22.19C81.4181 23 81.3481 23.615 81.2081 24.035C81.0181 24.685 80.6631 25.195 80.1431 25.565C79.6331 25.935 79.0181 26.12 78.2981 26.12ZM78.2981 25.19C78.7781 25.19 79.1881 25.06 79.5281 24.8C79.8681 24.53 80.0981 24.17 80.2181 23.72C80.3081 23.36 80.3531 22.855 80.3531 22.205C80.3531 21.545 80.3131 21.04 80.2331 20.69C80.1131 20.24 79.8781 19.885 79.5281 19.625C79.1881 19.355 78.7731 19.22 78.2831 19.22C77.7931 19.22 77.3781 19.355 77.0381 19.625C76.6981 19.885 76.4681 20.24 76.3481 20.69C76.2681 21.04 76.2281 21.545 76.2281 22.205C76.2281 22.865 76.2681 23.37 76.3481 23.72C76.4581 24.17 76.6831 24.53 77.0231 24.8C77.3731 25.06 77.7981 25.19 78.2981 25.19ZM86.637 18.335C86.967 18.335 87.252 18.4 87.492 18.53C87.572 18.57 87.602 18.635 87.582 18.725L87.417 19.46C87.387 19.56 87.322 19.59 87.222 19.55C87.052 19.48 86.857 19.445 86.637 19.445L86.442 19.46C85.922 19.48 85.492 19.675 85.152 20.045C84.812 20.405 84.642 20.865 84.642 21.425V25.85C84.642 25.95 84.592 26 84.492 26H83.727C83.627 26 83.577 25.95 83.577 25.85V18.56C83.577 18.46 83.627 18.41 83.727 18.41H84.492C84.592 18.41 84.642 18.46 84.642 18.56V19.475C84.642 19.505 84.647 19.525 84.657 19.535C84.677 19.535 84.692 19.525 84.702 19.505C84.912 19.135 85.177 18.85 85.497 18.65C85.827 18.44 86.207 18.335 86.637 18.335ZM94.7876 20.93C94.8276 21.21 94.8476 21.56 94.8476 21.98V22.46C94.8476 22.56 94.7976 22.61 94.6976 22.61H89.8526C89.8126 22.61 89.7926 22.63 89.7926 22.67C89.8126 23.22 89.8426 23.575 89.8826 23.735C89.9926 24.185 90.2276 24.54 90.5876 24.8C90.9476 25.06 91.4076 25.19 91.9676 25.19C92.3876 25.19 92.7576 25.095 93.0776 24.905C93.3976 24.715 93.6476 24.445 93.8276 24.095C93.8876 24.005 93.9576 23.985 94.0376 24.035L94.6226 24.38C94.7026 24.43 94.7226 24.5 94.6826 24.59C94.4326 25.07 94.0576 25.45 93.5576 25.73C93.0576 26 92.4826 26.135 91.8326 26.135C91.1226 26.125 90.5276 25.955 90.0476 25.625C89.5676 25.295 89.2226 24.835 89.0126 24.245C88.8326 23.765 88.7426 23.075 88.7426 22.175C88.7426 21.755 88.7476 21.415 88.7576 21.155C88.7776 20.885 88.8176 20.645 88.8776 20.435C89.0476 19.785 89.3876 19.265 89.8976 18.875C90.4176 18.485 91.0426 18.29 91.7726 18.29C92.6826 18.29 93.3826 18.52 93.8726 18.98C94.3626 19.44 94.6676 20.09 94.7876 20.93ZM91.7726 19.22C91.2826 19.22 90.8726 19.35 90.5426 19.61C90.2226 19.86 90.0126 20.2 89.9126 20.63C89.8526 20.84 89.8126 21.18 89.7926 21.65C89.7926 21.69 89.8126 21.71 89.8526 21.71H93.7376C93.7776 21.71 93.7976 21.69 93.7976 21.65C93.7776 21.2 93.7476 20.88 93.7076 20.69C93.5976 20.24 93.3726 19.885 93.0326 19.625C92.7026 19.355 92.2826 19.22 91.7726 19.22Z" fill="white"/>
</svg>
