<svg width="117" height="39" viewBox="0 0 117 39" fill="none" xmlns="http://www.w3.org/2000/svg">
<rect opacity="0.6" x="0.5" y="0.5" width="116" height="38" stroke="#515151"/>
<path d="M24.2061 26.12C23.5061 26.12 22.8911 25.985 22.3611 25.715C21.8311 25.435 21.4161 25.045 21.1161 24.545C20.8261 24.045 20.6811 23.47 20.6811 22.82V18.68C20.6811 18.03 20.8261 17.455 21.1161 16.955C21.4161 16.455 21.8311 16.07 22.3611 15.8C22.8911 15.52 23.5061 15.38 24.2061 15.38C24.8961 15.38 25.5061 15.515 26.0361 15.785C26.5761 16.055 26.9911 16.435 27.2811 16.925C27.5711 17.405 27.7161 17.95 27.7161 18.56V18.755C27.7161 18.855 27.6661 18.905 27.5661 18.905H26.8011C26.7011 18.905 26.6511 18.855 26.6511 18.755V18.575C26.6511 17.905 26.4261 17.36 25.9761 16.94C25.5361 16.52 24.9461 16.31 24.2061 16.31C23.4661 16.31 22.8711 16.525 22.4211 16.955C21.9711 17.385 21.7461 17.95 21.7461 18.65V22.85C21.7461 23.55 21.9761 24.115 22.4361 24.545C22.8961 24.975 23.5011 25.19 24.2511 25.19C24.9811 25.19 25.5611 24.99 25.9911 24.59C26.4311 24.19 26.6511 23.655 26.6511 22.985V21.62C26.6511 21.58 26.6311 21.56 26.5911 21.56H24.3861C24.2861 21.56 24.2361 21.51 24.2361 21.41V20.78C24.2361 20.68 24.2861 20.63 24.3861 20.63H27.5661C27.6661 20.63 27.7161 20.68 27.7161 20.78V22.715C27.7161 23.785 27.3961 24.62 26.7561 25.22C26.1261 25.82 25.2761 26.12 24.2061 26.12ZM35.8056 20.93C35.8456 21.21 35.8656 21.56 35.8656 21.98V22.46C35.8656 22.56 35.8156 22.61 35.7156 22.61H30.8706C30.8306 22.61 30.8106 22.63 30.8106 22.67C30.8306 23.22 30.8606 23.575 30.9006 23.735C31.0106 24.185 31.2456 24.54 31.6056 24.8C31.9656 25.06 32.4256 25.19 32.9856 25.19C33.4056 25.19 33.7756 25.095 34.0956 24.905C34.4156 24.715 34.6656 24.445 34.8456 24.095C34.9056 24.005 34.9756 23.985 35.0556 24.035L35.6406 24.38C35.7206 24.43 35.7406 24.5 35.7006 24.59C35.4506 25.07 35.0756 25.45 34.5756 25.73C34.0756 26 33.5006 26.135 32.8506 26.135C32.1406 26.125 31.5456 25.955 31.0656 25.625C30.5856 25.295 30.2406 24.835 30.0306 24.245C29.8506 23.765 29.7606 23.075 29.7606 22.175C29.7606 21.755 29.7656 21.415 29.7756 21.155C29.7956 20.885 29.8356 20.645 29.8956 20.435C30.0656 19.785 30.4056 19.265 30.9156 18.875C31.4356 18.485 32.0606 18.29 32.7906 18.29C33.7006 18.29 34.4006 18.52 34.8906 18.98C35.3806 19.44 35.6856 20.09 35.8056 20.93ZM32.7906 19.22C32.3006 19.22 31.8906 19.35 31.5606 19.61C31.2406 19.86 31.0306 20.2 30.9306 20.63C30.8706 20.84 30.8306 21.18 30.8106 21.65C30.8106 21.69 30.8306 21.71 30.8706 21.71H34.7556C34.7956 21.71 34.8156 21.69 34.8156 21.65C34.7956 21.2 34.7656 20.88 34.7256 20.69C34.6156 20.24 34.3906 19.885 34.0506 19.625C33.7206 19.355 33.3006 19.22 32.7906 19.22ZM41.2862 19.145C41.2862 19.245 41.2362 19.295 41.1362 19.295H39.4412C39.4012 19.295 39.3812 19.315 39.3812 19.355V23.78C39.3812 24.26 39.4862 24.6 39.6962 24.8C39.9162 24.99 40.2562 25.085 40.7162 25.085H41.0912C41.1912 25.085 41.2412 25.135 41.2412 25.235V25.85C41.2412 25.95 41.1912 26 41.0912 26C40.9712 26.01 40.7862 26.015 40.5362 26.015C39.8162 26.015 39.2712 25.88 38.9012 25.61C38.5312 25.34 38.3462 24.84 38.3462 24.11V19.355C38.3462 19.315 38.3262 19.295 38.2862 19.295H37.3712C37.2712 19.295 37.2212 19.245 37.2212 19.145V18.56C37.2212 18.46 37.2712 18.41 37.3712 18.41H38.2862C38.3262 18.41 38.3462 18.39 38.3462 18.35V16.61C38.3462 16.51 38.3962 16.46 38.4962 16.46H39.2312C39.3312 16.46 39.3812 16.51 39.3812 16.61V18.35C39.3812 18.39 39.4012 18.41 39.4412 18.41H41.1362C41.2362 18.41 41.2862 18.46 41.2862 18.56V19.145ZM47.0679 17.03C46.8279 17.03 46.6279 16.95 46.4679 16.79C46.3079 16.63 46.2279 16.43 46.2279 16.19C46.2279 15.94 46.3079 15.74 46.4679 15.59C46.6279 15.43 46.8279 15.35 47.0679 15.35C47.3079 15.35 47.5079 15.43 47.6679 15.59C47.8279 15.74 47.9079 15.94 47.9079 16.19C47.9079 16.43 47.8279 16.63 47.6679 16.79C47.5079 16.95 47.3079 17.03 47.0679 17.03ZM46.6479 25.985C46.5479 25.985 46.4979 25.935 46.4979 25.835V18.545C46.4979 18.445 46.5479 18.395 46.6479 18.395H47.4129C47.5129 18.395 47.5629 18.445 47.5629 18.545V25.835C47.5629 25.935 47.5129 25.985 47.4129 25.985H46.6479ZM53.3212 18.305C54.1212 18.305 54.7562 18.54 55.2262 19.01C55.7062 19.48 55.9462 20.11 55.9462 20.9V25.85C55.9462 25.95 55.8962 26 55.7962 26H55.0312C54.9312 26 54.8812 25.95 54.8812 25.85V21.11C54.8812 20.56 54.7112 20.11 54.3712 19.76C54.0412 19.41 53.6112 19.235 53.0812 19.235C52.5312 19.235 52.0862 19.405 51.7462 19.745C51.4062 20.085 51.2362 20.53 51.2362 21.08V25.85C51.2362 25.95 51.1862 26 51.0862 26H50.3212C50.2212 26 50.1712 25.95 50.1712 25.85V18.56C50.1712 18.46 50.2212 18.41 50.3212 18.41H51.0862C51.1862 18.41 51.2362 18.46 51.2362 18.56V19.205C51.2362 19.225 51.2412 19.24 51.2512 19.25C51.2712 19.26 51.2862 19.255 51.2962 19.235C51.7362 18.615 52.4112 18.305 53.3212 18.305ZM64.6651 19.145C64.6651 19.245 64.6151 19.295 64.5151 19.295H62.8201C62.7801 19.295 62.7601 19.315 62.7601 19.355V23.78C62.7601 24.26 62.8651 24.6 63.0751 24.8C63.2951 24.99 63.6351 25.085 64.0951 25.085H64.4701C64.5701 25.085 64.6201 25.135 64.6201 25.235V25.85C64.6201 25.95 64.5701 26 64.4701 26C64.3501 26.01 64.1651 26.015 63.9151 26.015C63.1951 26.015 62.6501 25.88 62.2801 25.61C61.9101 25.34 61.7251 24.84 61.7251 24.11V19.355C61.7251 19.315 61.7051 19.295 61.6651 19.295H60.7501C60.6501 19.295 60.6001 19.245 60.6001 19.145V18.56C60.6001 18.46 60.6501 18.41 60.7501 18.41H61.6651C61.7051 18.41 61.7251 18.39 61.7251 18.35V16.61C61.7251 16.51 61.7751 16.46 61.8751 16.46H62.6101C62.7101 16.46 62.7601 16.51 62.7601 16.61V18.35C62.7601 18.39 62.7801 18.41 62.8201 18.41H64.5151C64.6151 18.41 64.6651 18.46 64.6651 18.56V19.145ZM69.3992 26.12C68.6792 26.12 68.0592 25.935 67.5392 25.565C67.0192 25.195 66.6592 24.685 66.4592 24.035C66.3192 23.575 66.2492 22.96 66.2492 22.19C66.2492 21.42 66.3192 20.81 66.4592 20.36C66.6492 19.72 67.0042 19.215 67.5242 18.845C68.0442 18.475 68.6742 18.29 69.4142 18.29C70.1242 18.29 70.7342 18.475 71.2442 18.845C71.7642 19.215 72.1192 19.715 72.3092 20.345C72.4492 20.775 72.5192 21.39 72.5192 22.19C72.5192 23 72.4492 23.615 72.3092 24.035C72.1192 24.685 71.7642 25.195 71.2442 25.565C70.7342 25.935 70.1192 26.12 69.3992 26.12ZM69.3992 25.19C69.8792 25.19 70.2892 25.06 70.6292 24.8C70.9692 24.53 71.1992 24.17 71.3192 23.72C71.4092 23.36 71.4542 22.855 71.4542 22.205C71.4542 21.545 71.4142 21.04 71.3342 20.69C71.2142 20.24 70.9792 19.885 70.6292 19.625C70.2892 19.355 69.8742 19.22 69.3842 19.22C68.8942 19.22 68.4792 19.355 68.1392 19.625C67.7992 19.885 67.5692 20.24 67.4492 20.69C67.3692 21.04 67.3292 21.545 67.3292 22.205C67.3292 22.865 67.3692 23.37 67.4492 23.72C67.5592 24.17 67.7842 24.53 68.1242 24.8C68.4742 25.06 68.8992 25.19 69.3992 25.19ZM79.268 18.56C79.268 18.46 79.318 18.41 79.418 18.41H80.183C80.283 18.41 80.333 18.46 80.333 18.56V25.85C80.333 25.95 80.283 26 80.183 26H79.418C79.318 26 79.268 25.95 79.268 25.85V25.205C79.268 25.185 79.258 25.17 79.238 25.16C79.218 25.15 79.203 25.155 79.193 25.175C78.773 25.795 78.108 26.105 77.198 26.105C76.718 26.105 76.273 26.01 75.863 25.82C75.463 25.62 75.143 25.335 74.903 24.965C74.673 24.595 74.558 24.15 74.558 23.63V18.56C74.558 18.46 74.608 18.41 74.708 18.41H75.473C75.573 18.41 75.623 18.46 75.623 18.56V23.315C75.623 23.885 75.783 24.34 76.103 24.68C76.423 25.01 76.858 25.175 77.408 25.175C77.978 25.175 78.428 25.005 78.758 24.665C79.098 24.325 79.268 23.875 79.268 23.315V18.56ZM85.585 26.12C84.865 26.12 84.245 25.935 83.725 25.565C83.215 25.185 82.865 24.675 82.675 24.035C82.545 23.595 82.48 22.975 82.48 22.175C82.48 21.455 82.545 20.845 82.675 20.345C82.855 19.725 83.205 19.23 83.725 18.86C84.245 18.48 84.865 18.29 85.585 18.29C86.315 18.29 86.945 18.475 87.475 18.845C88.015 19.215 88.365 19.675 88.525 20.225C88.575 20.405 88.605 20.555 88.615 20.675V20.705C88.615 20.775 88.57 20.82 88.48 20.84L87.73 20.945H87.7C87.63 20.945 87.585 20.9 87.565 20.81L87.52 20.585C87.43 20.205 87.21 19.885 86.86 19.625C86.51 19.355 86.085 19.22 85.585 19.22C85.085 19.22 84.665 19.355 84.325 19.625C83.995 19.885 83.78 20.235 83.68 20.675C83.59 21.055 83.545 21.56 83.545 22.19C83.545 22.85 83.59 23.36 83.68 23.72C83.78 24.17 83.995 24.53 84.325 24.8C84.665 25.06 85.085 25.19 85.585 25.19C86.075 25.19 86.495 25.065 86.845 24.815C87.205 24.555 87.43 24.225 87.52 23.825V23.765L87.535 23.705C87.545 23.605 87.605 23.565 87.715 23.585L88.45 23.705C88.55 23.725 88.595 23.78 88.585 23.87L88.525 24.17C88.375 24.75 88.03 25.22 87.49 25.58C86.95 25.94 86.315 26.12 85.585 26.12ZM93.663 18.305C94.463 18.305 95.098 18.54 95.568 19.01C96.048 19.48 96.288 20.11 96.288 20.9V25.85C96.288 25.95 96.238 26 96.138 26H95.373C95.273 26 95.223 25.95 95.223 25.85V21.11C95.223 20.56 95.053 20.11 94.713 19.76C94.383 19.41 93.953 19.235 93.423 19.235C92.873 19.235 92.428 19.405 92.088 19.745C91.748 20.085 91.578 20.53 91.578 21.08V25.85C91.578 25.95 91.528 26 91.428 26H90.663C90.563 26 90.513 25.95 90.513 25.85V15.65C90.513 15.55 90.563 15.5 90.663 15.5H91.428C91.528 15.5 91.578 15.55 91.578 15.65V19.205C91.578 19.225 91.583 19.24 91.593 19.25C91.613 19.26 91.628 19.255 91.638 19.235C92.078 18.615 92.753 18.305 93.663 18.305Z" fill="#515151" fill-opacity="0.6"/>
</svg>
